<svg xmlns="http://www.w3.org/2000/svg" width="121.11" height="134.649" viewBox="0 0 121.11 134.649"><defs><style>.a,.b{fill:#ff8236;}.a{opacity:0.12;}.c{fill:#fff;}.d{fill:#58595b;}.e{fill:#f26522;}</style></defs><g transform="translate(-8.39 -11.667)"><path class="a" d="M859.7-120.166c-26.553,0-39.947,5.037-29.916,11.25,15.135,9.374,50.7,15.447,67.678,17.69s32.341-10.88,17.207-20.254C904.638-117.693,886.253-120.166,859.7-120.166Z" transform="translate(-804.447 308.972) rotate(-5)"/><path class="b" d="M66,0A48,48,0,0,0,18,48c0,40,48,80,48,80s48-40,48-80A48,48,0,0,0,66,0Z" transform="translate(15.5 11.667)"/><circle class="c" cx="40" cy="40" r="40" transform="translate(41.5 19.667)"/><g transform="translate(-209 340.705)"><path class="d" d="M274-294.111l5.819-.706,4.275,12.3,5.225-11.827h2.613l5.225,11.592,4.275-12.062,5.819.706-8.134,22.524H296.5l-5.878-12.225-5.878,12.225h-2.613Z"/><path class="e" d="M318.709-91.049h-29.03v-6.139h29.03Z" transform="translate(-13.674 -172.355)"/></g></g></svg>